<svg xmlns="http://www.w3.org/2000/svg" viewBox="0 0 535 139" width="535" height="139"><style>.a{fill:#004c58}.b{fill:#004e59}.c{fill:#48c3cc}</style><path fill-rule="evenodd" class="a" d="m285.1 35.3q0 33.7 0 67.5c0 1-0.2 1.3-1.3 1.3-3.5-0.1-7 0-10.5 0q-0.2 0-0.5 0-0.2-0.1-0.4-0.2-0.2-0.1-0.3-0.2-0.2-0.2-0.3-0.4l-31.2-42.3q-0.1-0.2-0.2-0.3-0.1-0.1-0.3-0.3-0.1-0.1-0.2-0.2-0.2-0.1-0.3-0.2v44h-14.7v-70c0.3-0.1 0.7-0.1 1-0.1q5.8 0 11.6 0 0.3 0 0.5 0.1 0.3 0 0.5 0.1 0.2 0.2 0.4 0.3 0.2 0.2 0.3 0.4l30.3 41.2 0.6 0.8h0.2v-42.7h14.6c0.1 0.4 0.1 0.8 0.1 1.1m202 43.9c5.6 8.3 11 16.5 16.6 24.9-0.5 0.1-0.8 0.1-1.1 0.1q-7.7 0-15.3 0-0.3 0-0.5 0-0.2-0.1-0.4-0.2-0.2-0.1-0.4-0.3-0.2-0.2-0.3-0.4c-4.4-6.9-8.9-13.8-13.4-20.7q-0.1-0.2-0.3-0.4-0.1-0.2-0.4-0.3-0.2-0.1-0.4-0.2-0.3 0-0.5 0c-3.2 0-7.5 0-10.7 0v22.4h-14.8v-69.9q0.1 0 0.2 0 0.1 0 0.2-0.1 0 0 0.1 0 0.1 0 0.2 0c10.7 0 21.3-0.1 31.9 0q1.8 0 3.5 0.2 1.7 0.2 3.4 0.7 1.7 0.4 3.3 1.1 1.7 0.6 3.2 1.5 1.7 0.9 3.3 2.2 1.5 1.3 2.7 2.9 1.2 1.5 2.1 3.3 0.9 1.8 1.4 3.7 0.6 2 0.8 4.1 0.3 2 0.3 4.1-0.1 2.1-0.4 4.2-0.4 2-1.1 4c-2.1 6-6.2 10-12 12.6l-1.1 0.5zm-9.7-11.3c6.2-0.5 9.5-5 9-11.2q-0.1-1.3-0.5-2.5-0.4-1.2-1.2-2.2-0.7-1-1.7-1.8-1.1-0.7-2.3-1.2-0.6-0.2-1.3-0.4-0.7-0.1-1.3-0.3-0.7-0.1-1.4-0.2-0.7 0-1.4-0.1c-4.2-0.1-8.5 0-12.7 0h-2.7v20.3c5.9-0.1 11.7 0.1 17.4-0.4zm-118.4-0.8q0.2 2.8 0 5.5-0.3 2.8-0.9 5.5-0.7 2.7-1.8 5.2-1 2.6-2.5 4.9c-5.4 8.5-13.3 13.5-23.1 15.3q-1 0.2-2 0.3-1 0.2-1.9 0.2-1 0.1-2 0.2-1 0-2 0c-8.3 0.1-16.6 0-24.9 0h-1.2v-70l0.5-0.1c9.2 0 18.4-0.2 27.6 0.1 11.2 0.3 20.6 4.6 27.5 13.7q1.6 2.1 2.8 4.4 1.2 2.2 2.1 4.7 0.8 2.4 1.3 4.9 0.5 2.6 0.5 5.1zm-16.1 7.6q0.4-1.6 0.5-3.1 0.2-1.6 0.1-3.2 0-1.5-0.3-3.1c-0.2-2.3-0.9-4.6-2-6.7-1.1-2.1-2.6-4-4.3-5.6-1.8-1.5-3.8-2.8-6-3.6-2.2-0.9-4.5-1.3-6.9-1.3q-5.9 0-11.7 0c-0.2 0-0.5 0-0.8 0v42.4c5.2-0.2 10.4 0.1 15.4-0.5 7.4-1 12.5-5.3 15.2-12.3q0.5-1.5 0.8-3zm93.4-9.3c1.2 12.1-2.7 22.3-12 30.3-7.5 6.5-16.5 9.1-26.3 8.5-12.8-0.8-22.7-6.6-29.2-17.8q-1-1.9-1.8-3.9-0.8-1.9-1.4-4-0.5-2.1-0.8-4.2-0.3-2.1-0.3-4.2c0-18.1 12.4-32.6 29.4-35.3 8.9-1.5 17.5-0.4 25.4 4.2 10.1 5.9 15.9 14.8 17 26.4zm-20.7 18.6c4.8-5.4 6.1-11.9 5-19-0.5-3.2-1.8-6.1-3.7-8.7-1.9-2.6-4.3-4.7-7.2-6.1-2.8-1.5-5.9-2.3-9.1-2.3-3.2 0-6.4 0.7-9.2 2.1-7.9 3.9-11.1 10.7-11.4 18.1 0 5.1 1 8.9 3 12.4 6.7 11.8 23.5 13.7 32.6 3.5zm-196.8 19.3c0.1 0.2 0.2 0.5 0.3 0.8-0.3 0-0.6 0-0.9 0q-6.8 0-13.7 0-0.2 0.1-0.4 0-0.2 0-0.4-0.2-0.2-0.1-0.3-0.3-0.1-0.2-0.2-0.4c-1.8-4.6-3.6-9.2-5.4-13.8q-0.1-0.2-0.2-0.3-0.1-0.2-0.3-0.4-0.2-0.1-0.4-0.1-0.3-0.1-0.5 0-13.4 0-26.7 0-0.3-0.1-0.5 0-0.2 0-0.4 0.2-0.2 0.1-0.4 0.3-0.1 0.2-0.1 0.5c-1.8 4.6-3.7 9.2-5.5 13.8-0.2 0.5-0.4 0.8-1 0.8q-7 0-14 0-0.1 0-0.1 0-0.1 0-0.1 0-0.1 0-0.1 0-0.1-0.1-0.1-0.1 0.2-0.5 0.4-1 14.1-33.8 28.1-67.7 0.1-0.3 0.3-0.5 0.1-0.3 0.4-0.4 0.2-0.2 0.5-0.3 0.3 0 0.5 0c3.9 0.1 7.8 0 11.7 0q0.2 0 0.4 0 0.2 0.1 0.3 0.2 0.2 0.1 0.3 0.3 0.2 0.1 0.2 0.4 14.2 34.1 28.3 68.3zm-26.7-28.2c-3-7.5-6-14.9-9-22.6-3 7.7-6 15.1-9 22.6z"></path><path class="a" d="m270.4 76.8v-42.7h14.6c0 0.4 0.1 0.8 0.1 1.1q0 33.8 0 67.6c0 1-0.2 1.3-1.3 1.3-3.5-0.1-7 0-10.5 0q-0.2 0-0.4-0.1-0.3 0-0.4-0.1-0.2-0.1-0.4-0.3-0.2-0.1-0.3-0.3-15.6-21.2-31.2-42.3-0.1-0.2-0.2-0.3-0.1-0.2-0.3-0.3-0.1-0.1-0.2-0.2-0.2-0.2-0.4-0.3v44h-14.6v-69.8c0.3 0 0.7-0.1 1-0.1q5.8 0 11.6 0 0.3 0 0.5 0 0.2 0.1 0.5 0.2 0.2 0.1 0.4 0.3 0.1 0.2 0.3 0.4 15.1 20.6 30.3 41.2 0.3 0.4 0.6 0.8h0.2"></path><path fill-rule="evenodd" class="a" d="m487 79.1c5.6 8.3 11 16.5 16.6 24.9-0.5 0.1-0.8 0.1-1.1 0.1q-7.7 0-15.4 0-0.2 0-0.4-0.1-0.2 0-0.4-0.1-0.2-0.1-0.4-0.3-0.2-0.2-0.3-0.4c-4.4-6.9-8.9-13.8-13.4-20.7q-0.1-0.2-0.3-0.4-0.1-0.2-0.4-0.3-0.2-0.1-0.4-0.2-0.3 0-0.5 0c-3.2 0-7.5 0-10.7 0v22.4h-14.8v-69.9q0.1 0 0.2 0 0.1 0 0.1-0.1 0.1 0 0.2 0 0.1 0 0.2 0c10.7 0 21.3-0.1 31.9 0q1.8 0 3.5 0.2 1.7 0.2 3.4 0.7 1.7 0.4 3.3 1.1 1.7 0.6 3.2 1.5 1.7 0.9 3.3 2.2 1.5 1.3 2.7 2.9 1.2 1.5 2.1 3.3 0.9 1.8 1.4 3.7 0.6 2 0.8 4.1 0.3 2.1 0.3 4.1-0.1 2.1-0.5 4.2-0.3 2-1 4c-2.1 6-6.2 10-12 12.5l-1.1 0.6m-9.7-11.3c6.2-0.5 9.5-4.9 9-11.2q-0.1-1.3-0.5-2.5-0.4-1.2-1.2-2.2-0.7-1-1.8-1.8-1-0.7-2.2-1.1-0.6-0.3-1.3-0.4-0.7-0.2-1.4-0.4-0.6-0.1-1.3-0.1-0.7-0.1-1.4-0.1c-4.2-0.2-8.5-0.1-12.7-0.1h-2.7v20.4c5.9-0.1 11.7 0 17.4-0.4z"></path><path fill-rule="evenodd" class="a" d="m358.9 67q0.2 2.8 0 5.5-0.3 2.8-0.9 5.4-0.7 2.7-1.8 5.3-1 2.5-2.5 4.9c-5.4 8.5-13.3 13.5-23.1 15.3q-1 0.2-2 0.3-1 0.1-2 0.2-0.9 0.1-1.9 0.1-1 0.1-2 0.1c-8.3 0-16.6 0-24.9 0h-1.2v-70q0.1 0 0.1 0 0.1 0 0.1-0.1 0.1 0 0.2 0 0 0 0.1 0c9.2 0 18.4-0.2 27.6 0.1 11.2 0.3 20.6 4.6 27.5 13.7q1.6 2.1 2.8 4.3 1.2 2.3 2.1 4.8 0.8 2.4 1.3 4.9 0.5 2.6 0.5 5.1m-16 7.6q0.3-1.6 0.4-3.1 0.2-1.6 0.1-3.1 0-1.6-0.3-3.2c-0.2-2.3-0.9-4.6-2-6.7-1.1-2.1-2.5-4-4.3-5.5-1.7-1.6-3.8-2.9-6-3.7-2.2-0.9-4.5-1.3-6.9-1.3q-5.8 0-11.7 0c-0.2 0-0.4 0-0.7 0v42.4c5.1-0.2 10.3 0.1 15.3-0.5 7.4-1 12.6-5.3 15.2-12.3q0.5-1.5 0.9-3z"></path><path fill-rule="evenodd" class="a" d="m436.3 65.2c1.1 12.1-2.8 22.4-12 30.4-7.6 6.4-16.5 9-26.4 8.4-12.7-0.8-22.7-6.6-29.1-17.8q-1.1-1.9-1.9-3.8-0.8-2-1.3-4.1-0.6-2.1-0.9-4.2-0.2-2.1-0.3-4.2c0-18.1 12.4-32.6 29.4-35.3 9-1.4 17.6-0.4 25.5 4.2 10.1 5.9 15.8 14.8 17 26.4m-20.8 18.6c4.9-5.4 6.2-11.9 5-19-0.5-3.1-1.8-6.1-3.6-8.7-1.9-2.6-4.4-4.7-7.2-6.1-2.9-1.5-6-2.3-9.2-2.3-3.2 0-6.3 0.7-9.2 2.1-7.8 3.9-11.1 10.7-11.4 18.1q0 1.6 0.1 3.2 0.2 1.6 0.6 3.2 0.4 1.6 0.9 3.1 0.6 1.5 1.4 2.9c6.8 11.8 23.5 13.7 32.6 3.5z"></path><path fill-rule="evenodd" class="b" d="m218.7 103.1c0.1 0.2 0.2 0.5 0.3 0.8-0.3 0-0.6 0-0.8 0q-6.9 0-13.7 0-0.3 0.1-0.5 0-0.2 0-0.4-0.2-0.2-0.1-0.3-0.3-0.1-0.2-0.1-0.4c-1.9-4.6-3.7-9.2-5.5-13.8q-0.1-0.2-0.2-0.4-0.1-0.1-0.3-0.3-0.2-0.1-0.4-0.1-0.2-0.1-0.4-0.1-13.4 0.1-26.8 0-0.2 0-0.5 0.1-0.2 0-0.4 0.2-0.2 0.1-0.3 0.3-0.2 0.2-0.2 0.4c-1.8 4.7-3.7 9.3-5.5 13.9-0.2 0.5-0.4 0.8-1 0.8q-7 0-14 0 0 0-0.1 0 0 0-0.1 0 0 0-0.1-0.1 0 0-0.1 0c0.2-0.3 0.3-0.7 0.4-1q14.1-33.8 28.2-67.7 0-0.3 0.2-0.5 0.2-0.3 0.4-0.4 0.2-0.2 0.5-0.3 0.3 0 0.6 0c3.9 0.1 7.7 0 11.6 0q0.2 0 0.4 0 0.2 0.1 0.4 0.2 0.2 0.1 0.3 0.3 0.1 0.1 0.2 0.3 14.1 34.2 28.3 68.4m-26.8-28.3c-3-7.5-5.9-14.9-9-22.6-3 7.7-6 15.1-9 22.6z"></path><path class="c" d="m48 63.9l6.5 10h-46l36.8-58.2 54.6 87.4 18.3-29h-21.4l-6.3-10.3 46.1 0.2-36.5 58.4-55-87.7-18.3 29z"></path><path fill-rule="evenodd" class="b" d="m505.9 41.9c0-2.6 1.1-5.1 2.9-6.9 1.8-1.9 4.3-2.9 6.9-2.9 2.6 0 5.1 1 7 2.9 1.8 1.8 2.8 4.3 2.8 6.9 0 2.6-1 5.1-2.8 6.9-1.9 1.9-4.4 2.9-7 2.9-2.6 0-5.1-1-6.9-2.9-1.8-1.8-2.9-4.3-2.9-6.9zm2.4 0c0 4.6 2.9 7.7 7.5 7.7 4.6 0 7.4-3.1 7.4-7.7 0-4.5-2.9-7.6-7.4-7.6-4.6 0-7.5 3.1-7.5 7.6zm9.8 1.1l2.5 3.9h-3.5l-2.1-3.6h-0.3v3.6h-3v-10.2h4.7c2.2 0 3.6 1.4 3.6 3.3q0.1 0.5-0.1 1-0.1 0.4-0.3 0.8-0.3 0.4-0.7 0.7-0.3 0.3-0.8 0.5zm-3.4-3.6v1.5h1.6q0.1 0.1 0.3 0 0.2 0 0.3-0.2 0.1-0.1 0.2-0.2 0.1-0.2 0.1-0.4c0-0.5-0.5-0.7-0.9-0.7z"></path></svg>